<?xml version="1.0" encoding="UTF-8" standalone="no"?>
<!DOCTYPE svg PUBLIC "-//W3C//DTD SVG 1.1//EN" "http://www.w3.org/Graphics/SVG/1.1/DTD/svg11.dtd">
<svg width="100%" height="100%" viewBox="0 0 229 243" version="1.1" xmlns="http://www.w3.org/2000/svg" xmlns:xlink="http://www.w3.org/1999/xlink" xml:space="preserve" xmlns:serif="http://www.serif.com/" style="fill-rule:evenodd;clip-rule:evenodd;stroke-linejoin:round;stroke-miterlimit:2;">
    <g transform="matrix(1,0,0,1,-267.357,-178)">
        <g transform="matrix(1,0,0,1,-4,-1)">
            <path d="M406.514,180.831C392.611,178.39 378.389,178.39 364.486,180.831C364.948,195.556 358.842,206.673 346.169,214.184C340.638,216.705 335.362,219.751 330.414,223.281C317.573,230.5 304.892,230.229 292.371,222.467C283.305,233.286 276.194,245.603 271.357,258.864C284.339,265.827 290.915,276.673 291.083,291.404C290.5,297.454 290.5,303.546 291.083,309.596C290.915,324.327 284.339,335.173 271.357,342.136C276.194,355.397 283.305,367.714 292.371,378.533C304.892,370.771 317.573,370.5 330.414,377.719C335.362,381.249 340.638,384.295 346.169,386.816C358.842,394.327 364.948,405.444 364.486,420.169C378.389,422.61 392.611,422.61 406.514,420.169C406.052,405.444 412.158,394.327 424.831,386.816C430.362,384.295 435.638,381.249 440.586,377.719C453.427,370.5 466.108,370.771 478.629,378.533C487.695,367.714 494.806,355.397 499.643,342.136C486.661,335.173 480.085,324.327 479.917,309.596C480.5,303.546 480.5,297.454 479.917,291.404C480.085,276.673 486.661,265.827 499.643,258.864C494.806,245.603 487.695,233.286 478.629,222.467C466.108,230.229 453.427,230.5 440.586,223.281C435.638,219.751 430.362,216.705 424.831,214.184C412.158,206.673 406.052,195.556 406.514,180.831ZM385.5,254.901C410.667,254.901 431.099,275.333 431.099,300.5C431.099,325.667 410.667,346.099 385.5,346.099C360.333,346.099 339.901,325.667 339.901,300.5C339.901,275.333 360.333,254.901 385.5,254.901Z" style="fill:white;"/>
        </g>
    </g>
</svg>
