<?xml version="1.0" encoding="UTF-8" standalone="no"?>
<!DOCTYPE svg PUBLIC "-//W3C//DTD SVG 1.1//EN" "http://www.w3.org/Graphics/SVG/1.1/DTD/svg11.dtd">
<svg width="100%" height="100%" viewBox="0 0 243 243" version="1.1" xmlns="http://www.w3.org/2000/svg" xmlns:xlink="http://www.w3.org/1999/xlink" xml:space="preserve" xmlns:serif="http://www.serif.com/" style="fill-rule:evenodd;clip-rule:evenodd;stroke-linejoin:round;stroke-miterlimit:2;">
    <g transform="matrix(1,0,0,1,-260,-178)">
        <g>
            <path d="M381.5,178C448.558,178 503,232.442 503,299.5C503,366.558 448.558,421 381.5,421C314.442,421 260,366.558 260,299.5C260,232.442 314.442,178 381.5,178ZM381.5,202.177C435.214,202.177 478.823,245.786 478.823,299.5C478.823,353.214 435.214,396.823 381.5,396.823C327.786,396.823 284.177,353.214 284.177,299.5C284.177,245.786 327.786,202.177 381.5,202.177Z" style="fill:white;"/>
            <g transform="matrix(1,0,0,0.862319,0,-0.195652)">
                <path d="M395,307.828C395,303.507 391.975,300 388.25,300L374.75,300C371.025,300 368,303.507 368,307.828L368,430.172C368,434.493 371.025,438 374.75,438L388.25,438C391.975,438 395,434.493 395,430.172L395,307.828Z" style="fill:white;"/>
            </g>
            <g transform="matrix(1,0,0,1,0,-2.5)">
                <circle cx="381.5" cy="237.5" r="13.5" style="fill:white;"/>
            </g>
        </g>
    </g>
</svg>
